<svg width="24" height="24" viewBox="0 0 24 24" fill="none" xmlns="http://www.w3.org/2000/svg">
<rect width="24" height="24" fill="#A2A2A2"/>
<g id="EAFS">
<path d="M-2066 -5356H6524V-5358H-2066V-5356ZM6525 -5355V3064H6527V-5355H6525ZM6524 3065H-2066V3067H6524V3065ZM-2067 3064V-5355H-2069V3064H-2067ZM-2066 3065C-2066.55 3065 -2067 3064.55 -2067 3064H-2069C-2069 3065.66 -2067.66 3067 -2066 3067V3065ZM6525 3064C6525 3064.55 6524.55 3065 6524 3065V3067C6525.66 3067 6527 3065.66 6527 3064H6525ZM6524 -5356C6524.55 -5356 6525 -5355.55 6525 -5355H6527C6527 -5356.66 6525.66 -5358 6524 -5358V-5356ZM-2066 -5358C-2067.66 -5358 -2069 -5356.66 -2069 -5355H-2067C-2067 -5355.55 -2066.55 -5356 -2066 -5356V-5358Z" fill="black" fill-opacity="0.1"/>
<g id="EAFS_2">
<rect width="1512" height="7397" transform="translate(-130 -4916)" fill="white"/>
<g id="Background">
<rect width="1512" height="7397" transform="translate(-130 -4916)" fill="#F07709" fill-opacity="0.08"/>
</g>
<g id="Frame 106">
<g id="Frame 126">
<rect width="1512" height="944" transform="translate(-130 -272)" fill="white"/>
<g id="Frame 163">
<g id="Card 1" filter="url(#filter0_d_0_1)">
<rect x="-31" y="-104" width="401" height="317" rx="20" fill="white"/>
<g id="Frame 113">
<g id="checkmark-square-04">
<path id="Vector" d="M15 2.5H12C7.52166 2.5 5.28249 2.5 3.89124 3.89124C2.5 5.28249 2.5 7.52166 2.5 12C2.5 16.4783 2.5 18.7175 3.89124 20.1088C5.28249 21.5 7.52166 21.5 12 21.5C16.4783 21.5 18.7175 21.5 20.1088 20.1088C21.5 18.7175 21.5 16.4783 21.5 12V10" stroke="#141B34" stroke-width="1.5" stroke-linecap="round"/>
<path id="Vector_2" d="M8.5 10L12 13.5L21.0002 3.5" stroke="#FF9534" stroke-width="1.5" stroke-linecap="round" stroke-linejoin="round"/>
</g>
</g>
</g>
</g>
</g>
</g>
</g>
</g>
<defs>
<filter id="filter0_d_0_1" x="-136" y="-205" width="611" height="527" filterUnits="userSpaceOnUse" color-interpolation-filters="sRGB">
<feFlood flood-opacity="0" result="BackgroundImageFix"/>
<feColorMatrix in="SourceAlpha" type="matrix" values="0 0 0 0 0 0 0 0 0 0 0 0 0 0 0 0 0 0 127 0" result="hardAlpha"/>
<feMorphology radius="5" operator="dilate" in="SourceAlpha" result="effect1_dropShadow_0_1"/>
<feOffset dy="4"/>
<feGaussianBlur stdDeviation="50"/>
<feComposite in2="hardAlpha" operator="out"/>
<feColorMatrix type="matrix" values="0 0 0 0 0 0 0 0 0 0 0 0 0 0 0 0 0 0 0.1 0"/>
<feBlend mode="normal" in2="BackgroundImageFix" result="effect1_dropShadow_0_1"/>
<feBlend mode="normal" in="SourceGraphic" in2="effect1_dropShadow_0_1" result="shape"/>
</filter>
</defs>
</svg>
