<svg viewBox="0 0 20 16" fill="none" xmlns="http://www.w3.org/2000/svg">
    <path
        d="M6.41256 11.0762L16.9955 0.493273C17.3244 0.164424 17.7429 0 18.2511 0C18.7593 0 19.1779 0.164424 19.5067 0.493273C19.8356 0.822122 20 1.24066 20 1.74888C20 2.2571 19.8356 2.67564 19.5067 3.00448L7.66816 14.843C7.30942 15.2018 6.89088 15.3812 6.41256 15.3812C5.93423 15.3812 5.51569 15.2018 5.15695 14.843L0.493273 10.1794C0.164424 9.85052 0 9.43199 0 8.92377C0 8.41555 0.164424 7.99701 0.493273 7.66816C0.822122 7.33931 1.24066 7.17489 1.74888 7.17489C2.2571 7.17489 2.67564 7.33931 3.00448 7.66816L6.41256 11.0762Z"
        fill="#00B823" />
</svg>