<?xml version="1.0" encoding="UTF-8"?>
<svg viewBox="0 0 256 256" version="1.1" xmlns="http://www.w3.org/2000/svg" xmlns:xlink="http://www.w3.org/1999/xlink">
    <title>Shape</title>
    <g id="Page-1" stroke="none" stroke-width="1" fill="none" fill-rule="evenodd">
        <g id="core-values-8668998-7141686" transform="translate(0.500000, 0.117665)" fill="#FFFFFF"
            fill-rule="nonzero">
            <g id="Group"
                transform="translate(127.500000, 127.873671) scale(-1, 1) rotate(-180.000000) translate(-127.500000, -127.873671) translate(0.000000, 0.000000)">
                <path
                    d="M59,254.465007 C55.1,252.765007 50.6,247.465007 49.9,243.865007 C49.3,241.165007 49.3,241.165007 45.3,242.565007 C40.5,244.265007 36.4,243.565007 31.4,240.365007 C24.9,236.165007 24.5,234.265007 24.5,205.365007 C24.5,181.265007 24.4,179.665007 22.8,180.365007 C15.6,183.165007 7.2,180.965007 2.7,175.065007 L0,171.565007 L0,112.465007 L0,53.365007 L3.1,44.765007 C10.4,24.365007 24.8,10.165007 45,3.36500705 C71.2,-5.43499295 100.7,3.76500705 118.2,26.365007 L121.3,30.365007 L123.5,27.565007 C126.2,24.165007 128.8,24.165007 131.5,27.565007 L133.7,30.365007 L136.8,26.365007 C146.4,13.965007 161.5,4.36500705 176.5,1.26500705 C192.8,-2.23499295 211.8,1.66500705 226.3,11.265007 C238.5,19.365007 246.9,30.465007 252.2,45.365007 L255,53.365007 L255,112.465007 L255,171.565007 L252.3,175.065007 C247.8,180.965007 239.4,183.165007 232.3,180.365007 C230.6,179.665007 230.5,181.265007 230.5,205.365007 C230.5,234.465007 230.2,236.065007 223.3,240.665007 C219,243.465007 211.7,244.065007 207.8,241.965007 C206,241.065007 205.7,241.265007 205.2,243.765007 C204.4,247.865007 199.1,253.565007 194.8,254.965007 C186.8,257.565007 178,253.465007 175,245.565007 L173.3,241.165007 L169.4,242.465007 C161.9,245.065007 153.2,240.965007 149.9,233.165007 C149.1,231.365007 148.5,226.965007 148.5,223.365007 C148.5,219.765007 148.4,216.865007 148.2,216.865007 C148.1,216.865007 146.4,217.365007 144.5,217.865007 C139.7,219.265007 134,218.165007 130.5,215.165007 L127.5,212.665007 L124.5,215.165007 C121,218.165007 115.3,219.265007 110.5,217.865007 C108.6,217.365007 106.9,216.865007 106.8,216.865007 C106.6,216.865007 106.5,219.765007 106.5,223.365007 C106.5,226.965007 105.9,231.365007 105.1,233.165007 C101.8,240.765007 93,245.065007 85.7,242.565007 L81.7,241.165007 L80,245.565007 C76.9,253.765007 66.8,258.065007 59,254.465007 Z M193,247.365007 C195.1,246.565007 196.9,244.865007 197.5,243.365007 C198.1,241.865007 198.5,230.665007 198.5,218.065007 L198.5,195.365007 L195.2,200.365007 C192.1,205.165007 191.8,205.365007 186.5,205.865007 L181,206.365007 L181,224.465007 C181,241.265007 181.2,242.865007 183,244.865007 C184.6,246.665007 187.3,248.365007 189.3,248.765007 C189.4,248.865007 191.1,248.165007 193,247.365007 Z M71.6,245.265007 C74,242.765007 74,242.365007 74,224.565007 L74,206.365007 L68.5,205.865007 C63.2,205.365007 62.9,205.165007 59.8,200.365007 L56.5,195.365007 L56.5,218.165007 C56.5,246.165007 56.9,247.565007 65.6,247.765007 C68.2,247.865007 69.8,247.165007 71.6,245.265007 Z M46.2,233.465007 L49,231.065007 L49.3,207.565007 L49.6,184.165007 L41.9,171.765007 C37.7,164.965007 33.6,158.665007 32.8,157.865007 C31.6,156.565007 31.5,161.965007 31.7,193.665007 L32,231.065007 L34.8,233.465007 C38.4,236.565007 42.6,236.565007 46.2,233.465007 Z M96,233.365007 C98.4,231.065007 98.5,230.365007 98.5,218.365007 L98.5,205.865007 L90,205.865007 L81.5,205.865007 L81.5,217.465007 C81.5,228.965007 82.2,232.165007 85.4,234.565007 C88.1,236.665007 93.3,236.065007 96,233.365007 Z M169.6,234.565007 C172.8,232.165007 173.5,228.965007 173.5,217.465007 L173.5,205.865007 L165,205.865007 L156.5,205.865007 L156.5,218.365007 C156.5,230.365007 156.6,231.065007 159,233.365007 C161.7,236.065007 166.9,236.665007 169.6,234.565007 Z M220.2,233.465007 L223,231.065007 L223.3,193.665007 C223.5,161.965007 223.4,156.565007 222.2,157.865007 C221.4,158.665007 217.3,164.965007 213.1,171.765007 L205.4,184.165007 L205.7,207.565007 L206,231.065007 L208.8,233.465007 C212.4,236.565007 216.6,236.565007 220.2,233.465007 Z M120.3,209.265007 C124,206.665007 122.8,205.865007 115,205.865007 C110.9,205.865007 107.5,206.265007 107.5,206.765007 C107.5,208.465007 111.9,210.865007 115,210.865007 C116.7,210.865007 119.1,210.165007 120.3,209.265007 Z M145.3,209.265007 C149,206.665007 147.8,205.865007 140,205.865007 C135.9,205.865007 132.5,206.265007 132.5,206.765007 C132.5,208.465007 136.9,210.865007 140,210.865007 C141.7,210.865007 144.1,210.165007 145.3,209.265007 Z M119.5,196.965007 C118.7,195.365007 112.1,184.665007 98.8,163.565007 L96.4,159.665007 L84.4,178.765007 C77.9,189.265007 72.5,198.065007 72.5,198.365007 C72.5,198.665007 83.3,198.865007 96.5,198.865007 C120,198.865007 120.5,198.865007 119.5,196.965007 Z M182.5,198.465007 C182.5,198.265007 177.1,189.465007 170.5,178.865007 L158.6,159.665007 L155.2,165.065007 C145.9,179.565007 134.5,198.065007 134.5,198.465007 C134.5,198.665007 145.3,198.865007 158.5,198.865007 C171.7,198.865007 182.5,198.665007 182.5,198.465007 Z M77.7,175.865007 C84.1,165.365007 89,156.665007 88.6,156.365007 C87.5,155.765007 41.5,156.065007 41.5,156.665007 C41.5,157.565007 65,194.865007 65.5,194.765208 C65.8,194.765208 71.3,186.265007 77.7,175.865007 Z M139.5,176.265007 C145.8,166.065007 151.1,157.365007 151.3,156.865007 C151.5,156.465007 140.8,156.065007 127.6,156.065007 C114.3,156.065007 103.5,156.265007 103.5,156.565007 C103.5,157.365007 127,194.865007 127.5,194.865007 C127.8,194.865007 133.2,186.465007 139.5,176.265007 Z M201.8,176.065007 C208.2,165.665007 213.5,156.965007 213.5,156.665007 C213.5,156.265007 202.8,156.065007 189.8,156.165007 C176.7,156.265007 166,156.665007 166,156.965007 C166,157.865007 188.9,194.765007 189.5,194.865007 C189.8,194.865007 195.3,186.365007 201.8,176.065007 Z M21.5,171.865007 C24.3,169.065007 24.4,167.865007 24.7,142.865007 L25,120.365007 L28.2,113.665007 C31.8,106.065007 37.8,99.065007 43.8,95.465007 C49.8,91.965007 56,85.165007 58.7,79.365007 C60.5,75.365007 61,72.565007 61,65.865007 C61,56.265007 59,50.665007 53,43.265007 C49,38.365007 48.6,36.365007 51.6,34.865007 C53.4,33.865007 54.2,34.265007 58,38.165007 C69.3,49.965007 72.1,68.165007 64.9,83.365007 C61.6,90.465007 56.7,95.765007 48.4,101.365007 C35.7,110.065007 31.2,120.165007 31.7,139.065007 L32,149.365007 L74.2,93.165007 L116.4,37.065007 L113.3,32.465007 C106.3,21.765007 91.7,11.865007 78.5,8.76500705 C65.9,5.86500705 49.9,7.96500705 38.1,14.065007 C30.1,18.265007 17.9,30.465007 13.7,38.465007 C7,51.365007 7,51.265007 7,113.065007 L7,168.665007 L9.4,171.265007 C12.5,174.565007 18.5,174.865007 21.5,171.865007 Z M245.6,171.265007 L248,168.665007 L248,113.065007 C248,51.265007 248,51.365007 241.3,38.465007 C237.1,30.465007 224.9,18.265007 216.9,14.065007 C205.1,7.96500705 189.1,5.86500705 176.5,8.76500705 C163.3,11.865007 148.7,21.765007 141.7,32.465007 L138.6,37.065007 L180.8,93.165007 L223,149.365007 L223.3,139.065007 C223.8,120.165007 219.3,110.065007 206.6,101.365007 C202.6,98.765007 197.8,94.765007 195.9,92.465007 C182.5,76.865007 183,52.765007 197,38.165007 C200.8,34.265007 201.6,33.865007 203.4,34.865007 C206.4,36.465007 206,38.265007 201.6,43.865007 C195.7,51.365007 193.2,58.765007 193.7,67.365007 C194.5,79.265007 200.7,89.265007 211.2,95.465007 C217.2,99.065007 223.2,106.065007 226.8,113.665007 L230,120.365007 L230.3,142.865007 C230.4,155.265007 230.8,166.365007 231,167.665007 C232.5,173.965007 241,176.165007 245.6,171.265007 Z M94.2,146.165007 C110.3,82.165007 118.9,46.865007 118.5,46.865007 C118,46.965007 43.2,146.565007 42.7,147.965007 C42.5,148.465007 53.8,148.865007 67.9,148.865007 L93.5,148.865007 L94.2,146.165007 Z M153.3,147.165007 C153,146.165007 147.3,122.965007 140.4,95.665007 C133.6,68.265007 127.8,45.865007 127.5,45.865007 C127.2,45.865007 121.4,68.265007 114.6,95.665007 C107.7,122.965007 102,146.165007 101.7,147.165007 C101.3,148.765007 103,148.865007 127.5,148.865007 C152,148.865007 153.7,148.765007 153.3,147.165007 Z M212.3,147.965007 C211.8,146.565007 137,46.965007 136.5,46.865007 C136.1,46.865007 144.7,82.165007 160.8,146.165007 L161.5,148.865007 L187.1,148.865007 C201.2,148.865007 212.5,148.465007 212.3,147.965007 Z"
                    id="Shape"></path>
            </g>
        </g>
    </g>
</svg>