<svg viewBox="0 0 18 12" fill="none" xmlns="http://www.w3.org/2000/svg">
    <path
        d="M8.8 1.6C11.832 1.6 14.536 3.304 15.856 6C14.536 8.696 11.832 10.4 8.8 10.4C5.768 10.4 3.064 8.696 1.744 6C3.064 3.304 5.768 1.6 8.8 1.6ZM8.8 0C4.8 0 1.384 2.488 0 6C1.384 9.512 4.8 12 8.8 12C12.8 12 16.216 9.512 17.6 6C16.216 2.488 12.8 0 8.8 0ZM8.8 4C9.904 4 10.8 4.896 10.8 6C10.8 7.104 9.904 8 8.8 8C7.696 8 6.8 7.104 6.8 6C6.8 4.896 7.696 4 8.8 4ZM8.8 2.4C6.816 2.4 5.2 4.016 5.2 6C5.2 7.984 6.816 9.6 8.8 9.6C10.784 9.6 12.4 7.984 12.4 6C12.4 4.016 10.784 2.4 8.8 2.4Z" />
</svg>