<svg viewBox="0 0 20 20" fill="none" xmlns="http://www.w3.org/2000/svg">
<path d="M17.7778 0.416153C18.3671 0.416153 18.9324 0.637676 19.3491 1.03199C19.7659 1.4263 20 1.96111 20 2.51875V17.2369C20 17.7946 19.7659 18.3294 19.3491 18.7237C18.9324 19.118 18.3671 19.3395 17.7778 19.3395H2.22222C1.63285 19.3395 1.06762 19.118 0.650874 18.7237C0.234126 18.3294 0 17.7946 0 17.2369V2.51875C0 1.96111 0.234126 1.4263 0.650874 1.03199C1.06762 0.637676 1.63285 0.416153 2.22222 0.416153H17.7778ZM17.2222 16.7113V11.1394C17.2222 10.2304 16.8406 9.35872 16.1613 8.71599C15.482 8.07326 14.5607 7.71217 13.6 7.71217C12.6556 7.71217 11.5556 8.25885 11.0222 9.07886V7.91192H7.92222V16.7113H11.0222V11.5284C11.0222 10.7189 11.7111 10.0566 12.5667 10.0566C12.9792 10.0566 13.3749 10.2116 13.6666 10.4877C13.9583 10.7637 14.1222 11.138 14.1222 11.5284V16.7113H17.2222ZM4.31111 6.26138C4.80618 6.26138 5.28098 6.0753 5.63104 5.74408C5.98111 5.41285 6.17778 4.96362 6.17778 4.4952C6.17778 3.51749 5.34444 2.7185 4.31111 2.7185C3.81309 2.7185 3.33547 2.90569 2.98332 3.23888C2.63117 3.57208 2.43333 4.02399 2.43333 4.4952C2.43333 5.4729 3.27778 6.26138 4.31111 6.26138ZM5.85556 16.7113V7.91192H2.77778V16.7113H5.85556Z" fill="#DDDDDD"/>
</svg>
