<?xml version="1.0" encoding="UTF-8"?>
<svg viewBox="0 0 720 542" version="1.1" xmlns="http://www.w3.org/2000/svg" xmlns:xlink="http://www.w3.org/1999/xlink">
    <title>mission.icon</title>
    <g id="Page-1" stroke="none" stroke-width="1" fill="none" fill-rule="evenodd">
        <g id="mission.icon" transform="translate(-0.000000, -0.000000)" fill="#FFFFFF" fill-rule="nonzero">
            <g id="Group"
                transform="translate(360.000000, 271.000000) scale(-1, 1) rotate(-180.000000) translate(-360.000000, -271.000000) translate(0.000000, 0.000000)">
                <path
                    d="M263,442.6 L263,343.2 L209.3,273.3 C179.8,234.9 134,175.4 107.6,141 C81.2,106.6 46.2,61.1 29.8,39.7 C13.4,18.4 0,0.8 0,0.5 C0,0.2 122.7,0 272.6,0 C449.4,0 545,0.3 544.800313,1 C544.7,1.5 529.4,21.7 510.9,45.7 C492.3,69.8 433.3,146.7 379.6,216.5 L282,343.5 L282,407.8 L282,472 L341,472 C373.5,472 400,472.3 400,472.8 C400,473.2 392.3,481.2 383,490.5 L366,507.5 L383.2,524.7 L400.5,542 L331.7,542 L263,542 L263,442.6 Z M331.4,229.6 C363.1,188.4 388.8,154.5 388.601159,154.3 C388.4,154.1 370.5,158.6 348.8,164.5 L309.3,175.1 L270.7,156.4 L232,137.8 L198.1,151.1 C175.5,160 164.4,164.9 164.8,165.6 C167.7,170.5 272.6,305.8 273.2,305.2 C273.6,304.8 299.8,270.8 331.4,229.6 Z"
                    id="Shape"></path>
                <path
                    d="M503.3,273.8 C500,269.2 483.1,246.4 465.7,223.1 L434.1,180.7 L440.4,172.6 C443.8,168.1 475.1,127.5 509.9,82.2 L573.1,0 L646.5,0 C686.9,0 720,0.2 720,0.5 C720,0.8 692.3,38.2 658.4,83.7 C624.4,129.3 577.4,192.5 553.7,224.3 C530.1,256 510.4,282 510,282 C509.7,282 506.6,278.3 503.3,273.8 Z M554,184.5 C577.9,152.3 598.1,125.1 598.8,124 C599.9,122.5 595.6,123.6 576.7,129.9 L553.2,137.8 L537.4,121.9 C528.7,113.1 521.2,106.1 520.8,106.198942 C518.9,106.9 465,181.5 465.5,182.8 C466.2,184.6 509.3,242.9 510,242.9 C510.3,242.9 530.1,216.6 554,184.5 Z"
                    id="Shape"></path>
            </g>
        </g>
    </g>
</svg>