<svg viewBox="0 0 16 16" fill="none" xmlns="http://www.w3.org/2000/svg">
    <path
        d="M1.77778 16C1.28889 16 0.870223 15.8258 0.521779 15.4773C0.173335 15.1289 -0.000591083 14.7105 1.50915e-06 14.2222V1.77778C1.50915e-06 1.28889 0.174224 0.870223 0.522668 0.521779C0.871112 0.173335 1.28948 -0.000591083 1.77778 1.50915e-06H8V1.77778H1.77778V14.2222H14.2222V8H16V14.2222C16 14.7111 15.8258 15.1298 15.4773 15.4782C15.1289 15.8267 14.7105 16.0006 14.2222 16H1.77778ZM5.95556 11.2889L4.71111 10.0444L12.9778 1.77778H9.77778V1.50915e-06H16V6.22222H14.2222V3.02222L5.95556 11.2889Z" />
</svg>