<svg  viewBox="0 0 20 20" fill="none" xmlns="http://www.w3.org/2000/svg">
<path d="M10 0.416153C4.48 0.416153 0 4.65499 0 9.87785C0 15.1007 4.48 19.3395 10 19.3395C15.52 19.3395 20 15.1007 20 9.87785C20 4.65499 15.52 0.416153 10 0.416153ZM14.64 6.85011C14.49 8.34506 13.84 11.9783 13.51 13.6531C13.37 14.3627 13.09 14.5992 12.83 14.6276C12.25 14.6749 11.81 14.2681 11.25 13.918C10.37 13.3692 9.87 13.0286 9.02 12.4987C8.03 11.8837 8.67 11.5431 9.24 10.9943C9.39 10.8524 11.95 8.64783 12 8.44913C12.0069 8.41904 12.006 8.3878 11.9973 8.35812C11.9886 8.32844 11.9724 8.30122 11.95 8.27882C11.89 8.23152 11.81 8.25044 11.74 8.2599C11.65 8.27882 10.25 9.15876 7.52 10.8997C7.12 11.1552 6.76 11.2876 6.44 11.2782C6.08 11.2687 5.4 11.0889 4.89 10.9281C4.26 10.7389 3.77 10.6348 3.81 10.3036C3.83 10.1333 4.08 9.96301 4.55 9.78323C7.47 8.5816 9.41 7.78682 10.38 7.40835C13.16 6.31079 13.73 6.12156 14.11 6.12156C14.19 6.12156 14.38 6.14048 14.5 6.2351C14.6 6.31079 14.63 6.41487 14.64 6.49056C14.63 6.54733 14.65 6.71764 14.64 6.85011Z" fill="#DDDDDD"/>
</svg>
