<svg viewBox="0 0 21 17" fill="none" xmlns="http://www.w3.org/2000/svg">
<path d="M20.92 2.14701C20.15 2.47817 19.32 2.69579 18.46 2.79987C19.34 2.2984 20.02 1.50361 20.34 0.547982C19.51 1.02107 18.59 1.35223 17.62 1.54146C16.83 0.727754 15.72 0.254669 14.46 0.254669C12.11 0.254669 10.19 2.07132 10.19 4.31374C10.19 4.63544 10.23 4.94767 10.3 5.24098C6.74 5.07067 3.57 3.45272 1.46 1.00214C1.09 1.59823 0.88 2.2984 0.88 3.03641C0.88 4.4462 1.63 5.69515 2.79 6.40477C2.08 6.40477 1.42 6.21554 0.84 5.93169V5.96007C0.84 7.92811 2.32 9.57444 4.28 9.94345C3.65073 10.1064 2.9901 10.1291 2.35 10.0097C2.62161 10.8163 3.15354 11.522 3.87102 12.0278C4.5885 12.5335 5.45545 12.8138 6.35 12.8293C4.83363 13.9651 2.954 14.579 1.02 14.5702C0.68 14.5702 0.34 14.5513 0 14.5134C1.9 15.6678 4.16 16.3396 6.58 16.3396C14.46 16.3396 18.79 10.1516 18.79 4.78682C18.79 4.60705 18.79 4.43674 18.78 4.25697C19.62 3.68927 20.34 2.97018 20.92 2.14701Z" fill="#DDDDDD"/>
</svg>
