<?xml version="1.0" encoding="UTF-8"?>
<svg viewBox="0 0 313 180" version="1.1" xmlns="http://www.w3.org/2000/svg" xmlns:xlink="http://www.w3.org/1999/xlink">
    <title>binocular-icon-overview-sticker-logo-icon-vector-our-vision-mission-logo-zoom-icons-business-goal-co</title>
    <g id="Page-1" stroke="none" stroke-width="1" fill="none" fill-rule="evenodd">
        <g id="binocular-icon-overview-sticker-logo-icon-vector-our-vision-mission-logo-zoom-icons-business-goal-co"
            transform="translate(0.987500, 0.365351)" fill="#FFFFFF" fill-rule="nonzero">
            <g id="Group"
                transform="translate(155.950653, 89.795450) scale(-1, 1) rotate(-180.000000) translate(-155.950653, -89.795450) translate(0.000000, 0.000000)">
                <path
                    d="M147.8125,178.55625 C142.4125,176.45625 138.7125,173.35625 135.5125,168.35625 L132.7125,163.95625 L125.5125,163.95625 C119.1125,163.95625 118.1125,164.25625 115.9125,166.55625 C107.5125,175.55625 85.8125,178.75625 72.0125,172.85625 C57.4125,166.75625 44.7125,155.85625 35.6125,141.75625 L33.8125,138.95625 L38.4125,140.95625 C57.3125,149.35625 81.7125,149.25625 101.2125,140.65625 C119.0125,132.75625 135.2125,115.75625 142.2125,97.45625 L144.5125,91.45625 L144.8125,95.95625 C145.3125,102.35625 143.3125,118.75625 141.5125,123.95625 C140.0125,128.15625 140.0125,128.55625 141.8125,130.95625 C143.8125,133.55625 144.3125,133.65625 153.5125,132.45625 C156.8125,131.95625 159.9125,132.25625 162.7125,133.25625 L167.0125,134.65625 L169.4125,131.55625 L171.8125,128.35625 L169.8125,122.35625 C168.3125,118.05625 167.6125,113.05625 167.3125,103.95625 L166.9125,91.45625 L169.8125,98.45625 C186.0125,138.35625 232.0125,157.75625 272.0125,141.55625 L278.0125,139.05625 L274.8125,143.75625 C266.9125,155.35625 254.3125,166.05625 241.4125,172.15625 C234.9125,175.25625 233.8125,175.45625 223.5125,175.45625 C210.5125,175.45625 205.1125,173.85625 197.2125,167.95625 C192.3125,164.25625 191.5125,163.95625 185.5125,163.95625 C179.5125,163.95625 178.9125,164.15625 177.3125,166.75625 C174.4125,171.35625 170.7125,175.05625 166.6125,177.15625 C161.6125,179.75625 152.7125,180.35625 147.8125,178.55625 Z M163.1125,167.65625 C175.3125,159.55625 169.3125,141.05625 154.9125,142.25625 C147.0125,142.95625 142.0125,148.35625 142.0125,156.15625 C142.0125,166.95625 154.2125,173.65625 163.1125,167.65625 Z"
                    id="Shape"></path>
                <path
                    d="M150.6125,161.85625 C145.0125,157.45625 148.6125,147.95625 156.0125,147.95625 C160.6125,147.95625 163.5125,151.05625 163.5125,155.95625 C163.5125,159.15625 162.9125,160.65625 161.1125,162.05625 C158.1125,164.55625 153.9125,164.45625 150.6125,161.85625 Z"
                    id="Path"></path>
                <path
                    d="M54.5125,137.45625 C28.9125,131.85625 7.4125,110.85625 1.5125,85.95625 C-0.6875,76.35625 -0.4875,60.05625 2.1125,50.95625 C8.7125,26.85625 27.8125,8.05625 51.6125,1.95625 C61.1125,-0.44375 76.7125,-0.64375 86.0125,1.45625 C96.5125,3.95625 108.1125,10.25625 116.5125,18.15625 C139.8125,39.85625 145.6125,72.05625 131.4125,100.75625 C119.8125,124.35625 95.7125,139.05625 69.0125,138.85625 C64.3125,138.85625 57.8125,138.15625 54.5125,137.45625 Z M85.4125,116.95625 C108.8125,108.95625 123.1125,85.15625 119.0125,61.05625 C115.0125,37.05625 93.4125,18.95625 69.0125,18.95625 C46.5125,19.05625 26.4125,34.75625 20.5125,57.05625 C13.5125,83.35625 31.3125,112.35625 58.3125,118.55625 C66.2125,120.35625 77.6125,119.65625 85.4125,116.95625 Z"
                    id="Shape"></path>
                <path
                    d="M58.9125,108.55625 C35.6125,102.05625 22.9125,77.65625 30.8125,54.45625 L32.5125,49.45625 L33.1125,58.45625 C33.9125,69.55625 36.6125,76.25625 43.7125,83.95625 C60.6125,102.45625 88.4125,102.45625 105.2125,84.05625 C109.0125,79.85625 110.1125,79.05625 109.5125,80.95625 C106.9125,89.45625 98.7125,99.65625 90.7125,104.45625 C82.0125,109.55625 68.7125,111.25625 58.9125,108.55625 Z"
                    id="Path"></path>
                <path
                    d="M225.1125,136.85625 C212.0125,133.45625 203.6125,128.55625 193.4125,118.45625 C179.0125,104.15625 172.8125,89.35625 172.712139,69.45625 C172.6125,37.45625 193.3125,10.45625 224.6125,1.85625 C231.2125,0.05625 234.2125,-0.24375 244.9125,0.15625 C265.2125,0.95625 277.1125,6.15625 291.6125,20.45625 C298.3125,27.05625 300.5125,30.15625 304.3125,37.95625 C317.0125,63.85625 313.6125,92.45625 295.3125,114.75625 C287.0125,124.85625 271.1125,134.35625 257.3125,137.35625 C247.6125,139.55625 234.3125,139.35625 225.1125,136.85625 Z M258.4125,116.95625 C280.5125,109.35625 295.4125,85.75625 292.2125,63.55625 C288.7125,38.85625 269.9125,20.95625 245.9125,19.25625 C216.6125,17.15625 192.0125,40.05625 192.0125,69.45625 C192.0125,83.05625 196.9125,94.85625 206.4125,104.35625 C220.3125,118.35625 240.4125,123.25625 258.4125,116.95625 Z"
                    id="Shape"></path>
                <path
                    d="M234.0125,107.85625 C213.5125,103.85625 198.2125,81.95625 201.7125,61.65625 C202.3125,58.25625 203.5125,53.85625 204.4125,51.95625 C205.8125,48.95625 205.9125,48.85625 205.5125,51.25625 C204.7125,55.55625 206.8125,66.95625 209.6125,72.65625 C217.6125,89.25625 236.5125,99.25625 253.9125,96.05625 C263.4125,94.25625 270.7125,90.45625 277.3125,83.75625 L283.1125,77.85625 L281.5125,81.65625 C273.2125,101.65625 254.6125,111.85625 234.0125,107.85625 Z"
                    id="Path"></path>
            </g>
        </g>
    </g>
</svg>