<svg viewBox="0 0 20 14" fill="none" xmlns="http://www.w3.org/2000/svg">
    <path
        d="M8 9.66253L13.19 6.82402L8 3.98552V9.66253ZM19.56 2.25402C19.69 2.69872 19.78 3.29481 19.84 4.05175C19.91 4.80868 19.94 5.46154 19.94 6.02924L20 6.82402C20 8.89614 19.84 10.4195 19.56 11.394C19.31 12.2456 18.73 12.7944 17.83 13.0309C17.36 13.1539 16.5 13.2391 15.18 13.2958C13.88 13.3621 12.69 13.3904 11.59 13.3904L10 13.4472C5.81 13.4472 3.2 13.2958 2.17 13.0309C1.27 12.7944 0.69 12.2456 0.44 11.394C0.31 10.9493 0.22 10.3532 0.16 9.5963C0.0900001 8.83937 0.0599999 8.18651 0.0599999 7.61881L0 6.82402C0 4.75191 0.16 3.22858 0.44 2.25402C0.69 1.40247 1.27 0.853693 2.17 0.617151C2.64 0.494149 3.5 0.408993 4.82 0.352223C6.12 0.285991 7.31 0.257606 8.41 0.257606L10 0.200836C14.19 0.200836 16.8 0.352223 17.83 0.617151C18.73 0.853693 19.31 1.40247 19.56 2.25402Z"
        fill="#DDDDDD" />
</svg>